<svg width="529" height="493" viewBox="0 0 529 493" fill="none" xmlns="http://www.w3.org/2000/svg">
<g id="AmpleTech">
<g id="XMLID 1764">
<path id="XMLID 1" d="M529 0H0V493H529V0Z" fill="url(#paint0_radial_2_3)"/>
<g id="XMLID 2">
<path id="XMLID 75" d="M392.052 281.375L427.795 281.919L433.779 287.46C433.512 287.831 433.356 288.237 433.35 288.714C433.334 290.042 434.493 291.116 435.968 291.139C437.444 291.161 438.629 290.123 438.645 288.795C438.661 287.467 437.502 286.393 436.027 286.371C435.382 286.361 434.814 286.557 434.317 286.89L428.93 281.902L446.519 282.17C446.697 283.093 447.595 283.822 448.691 283.839C449.902 283.857 450.933 282.987 450.946 281.863C450.96 280.773 449.989 279.839 448.741 279.82C447.644 279.803 446.767 280.471 446.528 281.421L421.941 281.047L428.556 275.255L451.896 275.61C452.074 276.533 452.972 277.262 454.068 277.278C455.278 277.297 456.309 276.427 456.323 275.303C456.336 274.213 455.365 273.279 454.117 273.26C453.021 273.243 452.144 273.911 451.905 274.861L428.228 274.5L420.768 281.029L392.403 280.597L387.5 276.06L393.697 270.636L402.395 270.768C402.571 271.895 403.656 272.797 404.98 272.817C406.456 272.84 407.641 271.802 407.657 270.474C407.673 269.146 406.514 268.072 405.038 268.05C403.714 268.029 402.645 268.899 402.404 270.019L393.365 269.881L386.941 275.506L367.974 257.947L376.618 250.381L389.249 250.573L401.745 262.141L424.061 262.481C424.239 263.403 425.137 264.132 426.233 264.149C427.443 264.167 428.478 263.297 428.492 262.173C428.506 261.084 427.531 260.149 426.283 260.13C425.186 260.113 424.309 260.781 424.07 261.731L402.096 261.397L390.459 250.626L408.503 250.901C408.679 252.027 409.765 252.929 411.089 252.95C412.564 252.972 413.749 251.934 413.765 250.606C413.782 249.278 412.623 248.204 411.147 248.182C409.823 248.162 408.754 249.031 408.513 250.151L376.285 249.66L367.377 257.461L358.996 249.703L336.946 249.368L336.937 250.117L358.645 250.448L392.052 281.375ZM436.018 287.12C437 287.135 437.822 287.863 437.811 288.782C437.8 289.668 436.998 290.405 435.977 290.389C434.991 290.374 434.169 289.646 434.181 288.727C434.191 287.841 435.031 287.105 436.018 287.12ZM405.029 268.833C406.011 268.848 406.837 269.576 406.826 270.495C406.815 271.381 406.009 272.118 404.989 272.102C404.006 272.087 403.184 271.359 403.196 270.44C403.245 269.521 404.046 268.818 405.029 268.833ZM411.1 248.93C412.082 248.945 412.904 249.673 412.893 250.593C412.882 251.478 412.08 252.215 411.06 252.2C410.077 252.185 409.252 251.457 409.263 250.537C409.274 249.652 410.117 248.915 411.1 248.93Z" fill="url(#paint1_linear_2_3)"/>
<path id="XMLID 90" d="M128.611 251.553C128.339 250.394 127.129 249.51 125.69 249.535C124.102 249.563 122.784 250.707 122.813 252.129C122.842 253.509 124.157 254.65 125.794 254.621C127.234 254.595 128.358 253.713 128.631 252.501L135.729 252.376L149.915 239.58C150.518 239.957 151.218 240.161 152.012 240.147C153.948 240.113 155.459 238.75 155.425 237.069C155.39 235.388 153.824 234.079 151.888 234.113C149.952 234.147 148.441 235.51 148.476 237.191C148.489 237.837 148.748 238.393 149.106 238.861L135.263 251.436L128.611 251.553ZM151.909 235.147C153.2 235.124 154.31 236.01 154.334 237.174C154.357 238.295 153.335 239.261 151.995 239.285C150.704 239.307 149.593 238.422 149.569 237.258C149.595 236.093 150.619 235.17 151.909 235.147Z" fill="url(#paint2_linear_2_3)"/>
<path id="XMLID 95" d="M111.456 251.653C109.836 251.7 108.507 252.936 108.555 254.455C108.602 255.929 109.957 257.134 111.628 257.086C112.238 257.068 112.736 256.916 113.235 256.625L117.092 259.924L140.849 259.242L144.144 256.06C144.76 256.411 145.478 256.621 146.24 256.599C148.211 256.542 149.74 255.07 149.684 253.274C149.627 251.479 148.007 250.097 146.036 250.153C144.06 250.21 142.536 251.682 142.593 253.478C142.615 254.169 142.884 254.806 143.308 255.347L140.358 258.196L117.516 258.852L114.025 255.865C114.366 255.394 114.548 254.882 114.529 254.284C114.482 252.811 113.127 251.605 111.456 251.653ZM146.068 251.166C147.384 251.129 148.527 252.063 148.566 253.306C148.604 254.503 147.575 255.547 146.208 255.586C144.888 255.624 143.744 254.689 143.705 253.446C143.667 252.249 144.747 251.204 146.068 251.166Z" fill="url(#paint3_linear_2_3)"/>
<path id="XMLID 101" d="M163.411 293.315L140.347 293.418L120.188 274.485L95.1362 274.596C94.8839 273.354 93.7152 272.392 92.3108 272.398C90.7605 272.405 89.4622 273.608 89.4735 275.128C89.4845 276.602 90.7524 277.84 92.3513 277.833C93.7557 277.827 94.8618 276.901 95.1437 275.61L119.714 275.5L139.869 294.434L163.37 294.329C163.625 295.848 165.038 297.039 166.734 297.031C168.624 297.023 170.115 295.588 170.102 293.792C170.089 291.996 168.576 290.575 166.686 290.583C165.039 290.636 163.692 291.794 163.411 293.315ZM169.087 293.843C169.096 295.04 168.083 296.058 166.775 296.064C165.517 296.07 164.44 295.107 164.431 293.863C164.422 292.62 165.435 291.648 166.742 291.642C168.001 291.637 169.077 292.599 169.087 293.843Z" fill="url(#paint4_linear_2_3)"/>
<path id="XMLID 104" d="M75.0391 250.07C73.0629 250.06 71.4892 251.48 71.4854 253.276C71.4815 255.072 73.0492 256.508 75.0254 256.518C75.8867 256.523 76.6474 256.25 77.2562 255.793L88.6349 266.215L139.305 266.475C139.556 267.72 140.768 268.693 142.237 268.701C143.858 268.709 145.233 267.518 145.236 265.998C145.239 264.478 143.92 263.274 142.249 263.265C140.78 263.258 139.614 264.173 139.307 265.461L89.0933 265.204L77.9672 255.013C78.323 254.509 78.527 253.911 78.5283 253.312C78.5829 251.516 77.0153 250.08 75.0391 250.07ZM75.0276 255.459C73.71 255.452 72.5977 254.479 72.6003 253.236C72.6029 252.038 73.6691 251.03 75.037 251.037C76.3547 251.044 77.4669 252.017 77.4643 253.261C77.4616 254.504 76.3955 255.466 75.0276 255.459Z" fill="url(#paint5_linear_2_3)"/>
<path id="XMLID 107" d="M324.186 236.123C322.209 236.083 320.615 237.479 320.584 239.276C320.553 241.072 322.098 242.531 324.075 242.571C324.883 242.587 325.598 242.371 326.215 241.969L331.651 247.101L350.037 247.472L355.646 242.564C356.098 242.85 356.7 243.046 357.309 243.058C358.93 243.091 360.317 241.921 360.343 240.402C360.369 238.928 359.074 237.658 357.403 237.624C355.731 237.59 354.395 238.761 354.369 240.281C354.359 240.833 354.553 241.39 354.851 241.811L349.598 246.404L332.172 246.052L327.036 241.203C327.451 240.704 327.665 240.064 327.677 239.373C327.707 237.623 326.162 236.163 324.186 236.123ZM324.093 241.512C322.777 241.485 321.676 240.495 321.697 239.252C321.718 238.055 322.802 237.063 324.169 237.091C325.485 237.117 326.581 238.107 326.559 239.35C326.538 240.594 325.409 241.538 324.093 241.512Z" fill="url(#paint6_linear_2_3)"/>
<path id="Ample Tech" d="M157.289 274.932L157.714 273.878L161.317 273.878L161.742 274.932L157.289 274.932ZM156.469 277.042L156.879 275.987L162.138 275.987L162.592 277.042L156.469 277.042ZM155.648 279.151L156.059 278.097L162.973 278.097L163.412 279.151L155.648 279.151ZM147.079 282.052L145.937 282.052L155.531 257.794L156.674 257.794L166.254 282.052L165.126 282.052L156.103 259.215L147.079 282.052ZM156.234 261.72L156.835 263.067L149.335 282.052L148.207 282.052L156.234 261.72ZM157.406 264.503L157.963 265.953L151.62 282.052L150.478 282.052L157.406 264.503ZM158.52 267.403L159.076 268.883L153.876 282.052L152.748 282.052L158.52 267.403ZM173.065 282.052L171.923 282.052L162.343 257.794L163.471 257.794L173.065 282.052ZM161.2 257.794L170.795 282.052L169.667 282.052L160.072 257.794L161.2 257.794ZM158.93 257.794L168.524 282.052L167.382 282.052L157.802 257.794L158.93 257.794ZM192.372 273.204L193.427 271.212L193.427 282.052L192.372 282.052L192.372 273.204ZM194.482 269.161L195.536 267.169L195.536 282.052L194.482 282.052L194.482 269.161ZM196.591 265.177L197.646 263.17L197.646 282.052L196.591 282.052L196.591 265.177ZM189.516 272.706L188.915 271.607L196.181 257.794L197.367 257.794L189.516 272.706ZM188.3 270.406L187.685 269.293L193.778 257.794L194.98 257.794L188.3 270.406ZM181.239 271.329L182.294 273.321L182.294 282.052L181.239 282.052L181.239 271.329ZM179.13 267.315L180.185 269.307L180.185 282.052L179.13 282.052L179.13 267.315ZM177.021 263.302L178.075 265.308L178.075 282.052L177.021 282.052L177.021 263.302ZM185.546 275.723L184.359 275.723L175.966 259.801L175.966 282.052L174.911 282.052L174.911 257.794L176.098 257.794L185.546 275.723ZM187.934 275.723L186.732 275.723L177.299 257.794L178.5 257.794L187.934 275.723ZM198.7 259.801L190.307 275.723L189.106 275.723L179.687 257.794L180.873 257.794L189.721 274.61L198.554 257.794L199.755 257.794L199.755 282.052L198.7 282.052L198.7 259.801ZM210.741 270.567L216.864 270.567C217.87 270.567 218.72 270.23 219.413 269.556C220.116 268.873 220.468 267.911 220.468 266.671C220.468 265.743 220.102 264.913 219.369 264.181C218.637 263.438 217.802 263.067 216.864 263.067L207.812 263.067L207.812 282.052L206.757 282.052L206.757 262.013L216.864 262.013C218.095 262.013 219.179 262.486 220.116 263.433C221.054 264.381 221.523 265.46 221.523 266.671C221.523 268.165 221.068 269.366 220.16 270.274C219.252 271.173 218.153 271.622 216.864 271.622L210.741 271.622L210.741 270.567ZM210.741 272.677L216.864 272.677C217.88 272.677 218.817 272.432 219.677 271.944C220.546 271.446 221.244 270.733 221.772 269.806C222.309 268.878 222.577 267.833 222.577 266.671C222.577 265.167 222.001 263.839 220.849 262.686C219.706 261.534 218.378 260.958 216.864 260.958L205.702 260.958L205.702 282.052L204.648 282.052L204.648 259.903L216.864 259.903C218.046 259.903 219.159 260.216 220.204 260.841C221.249 261.466 222.079 262.301 222.694 263.346C223.319 264.39 223.632 265.499 223.632 266.671C223.632 267.999 223.319 269.21 222.694 270.304C222.069 271.388 221.239 272.232 220.204 272.838C219.179 273.433 218.065 273.731 216.864 273.731L210.741 273.731L210.741 272.677ZM210.741 274.786L216.864 274.786C217.909 274.786 218.91 274.581 219.867 274.171C220.824 273.751 221.654 273.189 222.357 272.486C223.07 271.773 223.637 270.914 224.057 269.908C224.477 268.892 224.687 267.813 224.687 266.671C224.687 265.304 224.33 264.019 223.617 262.818C222.904 261.607 221.942 260.645 220.732 259.932C219.53 259.21 218.241 258.848 216.864 258.848L203.593 258.848L203.593 282.052L202.538 282.052L202.538 257.794L216.864 257.794C218.427 257.794 219.892 258.204 221.259 259.024C222.626 259.835 223.715 260.924 224.525 262.291C225.336 263.658 225.741 265.118 225.741 266.671C225.741 268.057 225.502 269.337 225.023 270.509C224.545 271.671 223.9 272.638 223.09 273.409C222.279 274.181 221.337 274.781 220.263 275.211C219.189 275.631 218.056 275.841 216.864 275.841L210.741 275.841L210.741 274.786ZM209.921 282.052L208.866 282.052L208.866 264.122L216.864 264.122C217.558 264.122 218.153 264.376 218.651 264.884C219.159 265.391 219.413 265.987 219.413 266.671C219.413 268.565 218.564 269.513 216.864 269.513L210.741 269.513L210.741 268.458L216.864 268.458C217.333 268.458 217.699 268.326 217.963 268.062C218.227 267.799 218.358 267.335 218.358 266.671C218.358 266.241 218.212 265.885 217.919 265.601C217.636 265.318 217.284 265.177 216.864 265.177L209.921 265.177L209.921 282.052ZM228.056 257.794L229.11 257.794L229.11 282.052L228.056 282.052L228.056 257.794ZM234.384 257.794L235.439 257.794L235.439 276.778L243.876 276.778L243.876 277.833L235.439 277.833L235.439 278.888L243.876 278.888L243.876 279.942L235.439 279.942L235.439 280.997L243.876 280.997L243.876 282.052L234.384 282.052L234.384 257.794ZM232.274 257.794L233.329 257.794L233.329 282.052L232.274 282.052L232.274 257.794ZM230.165 257.794L231.22 257.794L231.22 282.052L230.165 282.052L230.165 257.794ZM251.493 282.052L250.439 282.052L250.439 257.794L251.493 257.794L251.493 282.052ZM249.384 282.052L248.329 282.052L248.329 257.794L249.384 257.794L249.384 282.052ZM247.274 282.052L246.22 282.052L246.22 257.794L247.274 257.794L247.274 282.052ZM253.603 276.778L264.823 276.778L264.823 277.833L253.603 277.833L253.603 278.888L264.823 278.888L264.823 279.942L253.603 279.942L253.603 280.997L264.823 280.997L264.823 282.052L252.548 282.052L252.548 257.794L264.823 257.794L264.823 258.848L253.603 258.848L253.603 259.903L264.823 259.903L264.823 260.958L253.603 260.958L253.603 262.013L264.823 262.013L264.823 263.067L253.603 263.067L253.603 267.286L259.359 267.286L259.359 268.341L253.603 268.341L253.603 269.395L259.359 269.395L259.359 270.45L253.603 270.45L253.603 271.505L259.359 271.505L259.359 272.559L253.603 272.559L253.603 276.778ZM270.214 258.848L270.214 257.794L286.034 257.794L286.034 258.848L270.214 258.848ZM270.214 260.958L270.214 259.903L286.034 259.903L286.034 260.958L270.214 260.958ZM270.214 263.067L270.214 262.013L286.034 262.013L286.034 263.067L281.815 263.067L281.815 282.052L280.761 282.052L280.761 263.067L279.706 263.067L279.706 282.052L278.651 282.052L278.651 263.067L277.597 263.067L277.597 282.052L276.542 282.052L276.542 263.067L275.487 263.067L275.487 282.052L274.433 282.052L274.433 263.067L270.214 263.067ZM293.71 282.052L292.655 282.052L292.655 257.794L293.71 257.794L293.71 282.052ZM291.601 282.052L290.546 282.052L290.546 257.794L291.601 257.794L291.601 282.052ZM289.491 282.052L288.437 282.052L288.437 257.794L289.491 257.794L289.491 282.052ZM295.819 276.778L307.04 276.778L307.04 277.833L295.819 277.833L295.819 278.888L307.04 278.888L307.04 279.942L295.819 279.942L295.819 280.997L307.04 280.997L307.04 282.052L294.765 282.052L294.765 257.794L307.04 257.794L307.04 258.848L295.819 258.848L295.819 259.903L307.04 259.903L307.04 260.958L295.819 260.958L295.819 262.013L307.04 262.013L307.04 263.067L295.819 263.067L295.819 267.286L301.576 267.286L301.576 268.341L295.819 268.341L295.819 269.395L301.576 269.395L301.576 270.45L295.819 270.45L295.819 271.505L301.576 271.505L301.576 272.559L295.819 272.559L295.819 276.778ZM327.958 266.085L327.094 266.656C326.566 265.875 325.878 265.26 325.028 264.81C324.189 264.351 323.275 264.122 322.289 264.122C320.688 264.122 319.32 264.688 318.188 265.821C317.055 266.954 316.488 268.321 316.488 269.923C316.488 271.524 317.055 272.891 318.188 274.024C319.32 275.157 320.688 275.723 322.289 275.723C323.275 275.723 324.189 275.494 325.028 275.035C325.878 274.576 326.566 273.956 327.094 273.175L327.943 273.79C327.318 274.708 326.508 275.435 325.512 275.973C324.516 276.51 323.441 276.778 322.289 276.778C321.361 276.778 320.473 276.598 319.623 276.236C318.783 275.875 318.056 275.387 317.44 274.771C316.825 274.156 316.337 273.429 315.976 272.589C315.614 271.739 315.434 270.85 315.434 269.923C315.434 268.995 315.614 268.111 315.976 267.271C316.337 266.422 316.825 265.689 317.44 265.074C318.056 264.459 318.783 263.971 319.623 263.609C320.473 263.248 321.361 263.067 322.289 263.067C323.451 263.067 324.53 263.341 325.526 263.888C326.523 264.425 327.333 265.157 327.958 266.085ZM329.701 264.884L328.822 265.455C328.1 264.4 327.162 263.565 326.01 262.95C324.867 262.325 323.627 262.013 322.289 262.013C320.854 262.013 319.53 262.369 318.319 263.082C317.108 263.785 316.147 264.742 315.434 265.953C314.731 267.164 314.379 268.487 314.379 269.923C314.379 271.358 314.731 272.681 315.434 273.892C316.147 275.103 317.108 276.065 318.319 276.778C319.53 277.481 320.854 277.833 322.289 277.833C323.627 277.833 324.872 277.52 326.024 276.895C327.177 276.27 328.114 275.426 328.837 274.361L329.701 274.962C328.881 276.173 327.816 277.13 326.508 277.833C325.209 278.536 323.803 278.888 322.289 278.888C320.668 278.888 319.169 278.487 317.792 277.686C316.415 276.886 315.326 275.797 314.525 274.42C313.725 273.043 313.324 271.544 313.324 269.923C313.324 268.302 313.725 266.803 314.525 265.426C315.326 264.049 316.415 262.96 317.792 262.159C319.169 261.358 320.668 260.958 322.289 260.958C323.803 260.958 325.209 261.309 326.508 262.013C327.816 262.716 328.881 263.673 329.701 264.884ZM331.459 263.712L330.58 264.283C329.662 262.935 328.471 261.871 327.006 261.09C325.551 260.299 323.979 259.903 322.289 259.903C320.932 259.903 319.633 260.167 318.393 260.694C317.152 261.222 316.083 261.934 315.185 262.833C314.296 263.722 313.588 264.786 313.061 266.026C312.533 267.266 312.27 268.565 312.27 269.923C312.27 271.28 312.533 272.579 313.061 273.819C313.588 275.059 314.296 276.129 315.185 277.027C316.083 277.916 317.152 278.624 318.393 279.151C319.633 279.679 320.932 279.942 322.289 279.942C323.988 279.942 325.565 279.547 327.021 278.756C328.476 277.965 329.662 276.895 330.58 275.548L331.43 276.178C330.414 277.662 329.101 278.839 327.489 279.708C325.888 280.567 324.154 280.997 322.289 280.997C320.287 280.997 318.437 280.504 316.737 279.517C315.038 278.521 313.69 277.174 312.694 275.474C311.708 273.775 311.215 271.925 311.215 269.923C311.215 267.921 311.708 266.07 312.694 264.371C313.69 262.672 315.038 261.329 316.737 260.343C318.437 259.347 320.287 258.848 322.289 258.848C324.164 258.848 325.907 259.288 327.519 260.167C329.13 261.036 330.443 262.218 331.459 263.712ZM333.188 262.511L332.309 263.082C331.195 261.451 329.755 260.162 327.987 259.215C326.23 258.267 324.33 257.794 322.289 257.794C320.648 257.794 319.076 258.116 317.572 258.761C316.078 259.395 314.789 260.255 313.705 261.339C312.621 262.423 311.757 263.717 311.112 265.221C310.478 266.715 310.16 268.282 310.16 269.923C310.16 271.563 310.478 273.136 311.112 274.639C311.757 276.134 312.621 277.423 313.705 278.507C314.789 279.591 316.078 280.455 317.572 281.099C319.076 281.734 320.648 282.052 322.289 282.052C324.33 282.052 326.234 281.573 328.002 280.616C329.77 279.659 331.21 278.365 332.323 276.734L333.173 277.379C331.962 279.137 330.399 280.533 328.485 281.568C326.571 282.594 324.506 283.106 322.289 283.106C320.502 283.106 318.793 282.755 317.162 282.052C315.541 281.358 314.14 280.426 312.958 279.254C311.786 278.072 310.849 276.671 310.146 275.05C309.452 273.419 309.106 271.71 309.106 269.923C309.106 268.136 309.452 266.431 310.146 264.81C310.849 263.18 311.786 261.778 312.958 260.606C314.14 259.425 315.541 258.487 317.162 257.794C318.793 257.091 320.502 256.739 322.289 256.739C324.516 256.739 326.586 257.257 328.5 258.292C330.414 259.327 331.977 260.733 333.188 262.511ZM358.427 257.794L359.482 257.794L359.482 282.052L358.427 282.052L358.427 257.794ZM335.224 257.794L336.278 257.794L336.278 282.052L335.224 282.052L335.224 257.794ZM356.317 257.794L357.372 257.794L357.372 282.052L356.317 282.052L356.317 257.794ZM354.208 257.794L355.263 257.794L355.263 282.052L354.208 282.052L354.208 257.794ZM352.099 257.794L353.153 257.794L353.153 282.052L352.099 282.052L352.099 272.545L342.607 272.545L342.607 282.052L341.552 282.052L341.552 257.794L342.607 257.794L342.607 267.271L352.099 267.271L352.099 257.794ZM339.442 257.794L340.497 257.794L340.497 282.052L339.442 282.052L339.442 257.794ZM337.333 257.794L338.388 257.794L338.388 282.052L337.333 282.052L337.333 257.794ZM352.099 271.49L352.099 270.435L342.607 270.435L342.607 271.49L352.099 271.49ZM352.099 269.381L352.099 268.326L342.607 268.326L342.607 269.381L352.099 269.381Z" fill="url(#paint7_linear_2_3)"/>
</g>
</g>
</g>
<defs>
<radialGradient id="paint0_radial_2_3" cx="0" cy="0" r="1" gradientUnits="userSpaceOnUse" gradientTransform="translate(264.5 246.5) scale(264.506 246.5)">
<stop stop-color="#5080B1"/>
<stop offset="0.1432" stop-color="#477BAE"/>
<stop offset="0.3804" stop-color="#2A6FA5"/>
<stop offset="0.5843" stop-color="#00639B"/>
<stop offset="1" stop-color="#004E8C"/>
</radialGradient>
<linearGradient id="paint1_linear_2_3" x1="481.289" y1="352.307" x2="391.651" y2="234.599" gradientUnits="userSpaceOnUse">
<stop stop-color="#E1E4EF"/>
<stop offset="0.5" stop-color="#CBD1E4"/>
<stop offset="1" stop-color="#B4BED8"/>
</linearGradient>
<linearGradient id="paint2_linear_2_3" x1="93.7662" y1="200.995" x2="211.058" y2="350.225" gradientUnits="userSpaceOnUse">
<stop stop-color="#E1E4EF"/>
<stop offset="0.5" stop-color="#CBD1E4"/>
<stop offset="1" stop-color="#B4BED8"/>
</linearGradient>
<linearGradient id="paint3_linear_2_3" x1="211.607" y1="334.814" x2="83.2584" y2="182.267" gradientUnits="userSpaceOnUse">
<stop stop-color="#E1E4EF"/>
<stop offset="0.5" stop-color="#CBD1E4"/>
<stop offset="1" stop-color="#B4BED8"/>
</linearGradient>
<linearGradient id="paint4_linear_2_3" x1="218.837" y1="380.356" x2="93.0885" y2="230.181" gradientUnits="userSpaceOnUse">
<stop stop-color="#E1E4EF"/>
<stop offset="0.5" stop-color="#CBD1E4"/>
<stop offset="1" stop-color="#B4BED8"/>
</linearGradient>
<linearGradient id="paint5_linear_2_3" x1="68.3427" y1="217.623" x2="191.458" y2="374.423" gradientUnits="userSpaceOnUse">
<stop stop-color="#E1E4EF"/>
<stop offset="0.5" stop-color="#CBD1E4"/>
<stop offset="1" stop-color="#B4BED8"/>
</linearGradient>
<linearGradient id="paint6_linear_2_3" x1="414.908" y1="320.625" x2="294.173" y2="161.985" gradientUnits="userSpaceOnUse">
<stop stop-color="#E1E4EF"/>
<stop offset="0.5" stop-color="#CBD1E4"/>
<stop offset="1" stop-color="#B4BED8"/>
</linearGradient>
<linearGradient id="paint7_linear_2_3" x1="257.953" y1="247.052" x2="257.953" y2="303.052" gradientUnits="userSpaceOnUse">
<stop stop-color="#E1E4EF"/>
<stop offset="0.505208" stop-color="#CBD1E4" stop-opacity="0.494792"/>
<stop offset="1" stop-color="#B4BED8"/>
</linearGradient>
</defs>
</svg>
