<?xml version="1.0" standalone="no"?><svg xmlns="http://www.w3.org/2000/svg" height="1000px;" width="100%" viewBox="0 0 1440 320">
    <defs>
    <linearGradient id="myGradient" gradientTransform="rotate(0)">
      <stop offset="0%"  stop-color="#135d8a" />
      <stop offset="100%" stop-color="#2997d3" />
    </linearGradient>
  </defs>
    <path fill="url('#myGradient')" d="M0,96L48,117.3C96,139,192,181,288,176C384,171,480,117,576,133.3C672,149,768,235,864,229.3C960,224,1056,128,1152,96C1248,64,1344,96,1392,112L1440,128L1440,320L1392,320C1344,320,1248,320,1152,320C1056,320,960,320,864,320C768,320,672,320,576,320C480,320,384,320,288,320C192,320,96,320,48,320L0,320Z"></path>

</svg>