<?xml version="1.0" standalone="no"?>
<svg xmlns:xlink="http://www.w3.org/1999/xlink" id="wave" style="transform:rotate(0deg); transition: 0.3s" viewBox="0 0 1440 170" version="1.1" xmlns="http://www.w3.org/2000/svg"><defs><linearGradient id="sw-gradient-0" x1="0" x2="0" y1=".9" y2="0">
            <stop stop-color="#135d8a" offset="0%"/>
            <stop stop-color="#2997d3" offset="100%"/>
        </linearGradient></defs><path style="transform:translate(0, 0px); opacity:1" fill="url(#sw-gradient-0)" d="M0,119L48,104.8C96,91,192,62,288,53.8C384,45,480,57,576,76.5C672,96,768,125,864,121.8C960,119,1056,85,1152,73.7C1248,62,1344,74,1440,85C1536,96,1632,108,1728,96.3C1824,85,1920,51,2016,31.2C2112,11,2208,6,2304,8.5C2400,11,2496,23,2592,39.7C2688,57,2784,79,2880,76.5C2976,74,3072,45,3168,51C3264,57,3360,96,3456,99.2C3552,102,3648,68,3744,45.3C3840,23,3936,11,4032,22.7C4128,34,4224,68,4320,76.5C4416,85,4512,68,4608,76.5C4704,85,4800,119,4896,127.5C4992,136,5088,119,5184,110.5C5280,102,5376,102,5472,102C5568,102,5664,102,5760,85C5856,68,5952,34,6048,17C6144,0,6240,0,6336,17C6432,34,6528,68,6624,68C6720,68,6816,34,6864,17L6912,0L6912,170L6864,170C6816,170,6720,170,6624,170C6528,170,6432,170,6336,170C6240,170,6144,170,6048,170C5952,170,5856,170,5760,170C5664,170,5568,170,5472,170C5376,170,5280,170,5184,170C5088,170,4992,170,4896,170C4800,170,4704,170,4608,170C4512,170,4416,170,4320,170C4224,170,4128,170,4032,170C3936,170,3840,170,3744,170C3648,170,3552,170,3456,170C3360,170,3264,170,3168,170C3072,170,2976,170,2880,170C2784,170,2688,170,2592,170C2496,170,2400,170,2304,170C2208,170,2112,170,2016,170C1920,170,1824,170,1728,170C1632,170,1536,170,1440,170C1344,170,1248,170,1152,170C1056,170,960,170,864,170C768,170,672,170,576,170C480,170,384,170,288,170C192,170,96,170,48,170L0,170Z"/></svg>