<?xml version="1.0" standalone="no"?>
<svg xmlns:xlink="http://www.w3.org/1999/xlink" id="wave" style="transform:rotate(0deg); transition: 0.3s" viewBox="0 0 1440 490"  version="1.1" xmlns="http://www.w3.org/2000/svg"><defs><linearGradient id="sw-gradient-0" x1="0" x2="0" y1="1" y2="0"><stop stop-color="rgba(243, 106, 62, 1)" offset="0%"/><stop stop-color="rgba(255, 179, 11, 1)" offset="100%"/></linearGradient></defs><path style="transform:translate(0, 0px); opacity:1; height:1200px;" fill="url(#sw-gradient-0)" d="M0,196L60,187.8C120,180,240,163,360,204.2C480,245,600,343,720,326.7C840,310,960,180,1080,179.7C1200,180,1320,310,1440,367.5C1560,425,1680,408,1800,343C1920,278,2040,163,2160,130.7C2280,98,2400,147,2520,204.2C2640,261,2760,327,2880,367.5C3000,408,3120,425,3240,416.5C3360,408,3480,376,3600,351.2C3720,327,3840,310,3960,261.3C4080,212,4200,131,4320,147C4440,163,4560,278,4680,318.5C4800,359,4920,327,5040,310.3C5160,294,5280,294,5400,269.5C5520,245,5640,196,5760,179.7C5880,163,6000,180,6120,204.2C6240,229,6360,261,6480,236.8C6600,212,6720,131,6840,138.8C6960,147,7080,245,7200,302.2C7320,359,7440,376,7560,392C7680,408,7800,425,7920,359.3C8040,294,8160,147,8280,98C8400,49,8520,98,8580,122.5L8640,147L8640,490L8580,490C8520,490,8400,490,8280,490C8160,490,8040,490,7920,490C7800,490,7680,490,7560,490C7440,490,7320,490,7200,490C7080,490,6960,490,6840,490C6720,490,6600,490,6480,490C6360,490,6240,490,6120,490C6000,490,5880,490,5760,490C5640,490,5520,490,5400,490C5280,490,5160,490,5040,490C4920,490,4800,490,4680,490C4560,490,4440,490,4320,490C4200,490,4080,490,3960,490C3840,490,3720,490,3600,490C3480,490,3360,490,3240,490C3120,490,3000,490,2880,490C2760,490,2640,490,2520,490C2400,490,2280,490,2160,490C2040,490,1920,490,1800,490C1680,490,1560,490,1440,490C1320,490,1200,490,1080,490C960,490,840,490,720,490C600,490,480,490,360,490C240,490,120,490,60,490L0,490Z"/><defs><linearGradient id="sw-gradient-1" x1="0" x2="0" y1="1" y2="0"><stop stop-color="rgba(243, 106, 62, 1)" offset="0%"/><stop stop-color="rgba(255, 179, 11, 1)" offset="100%"/></linearGradient></defs><path style="transform:translate(0, 50px); opacity:0.9; " fill="url(#sw-gradient-1)" d="M0,392L60,343C120,294,240,196,360,163.3C480,131,600,163,720,179.7C840,196,960,196,1080,171.5C1200,147,1320,98,1440,130.7C1560,163,1680,278,1800,343C1920,408,2040,425,2160,383.8C2280,343,2400,245,2520,228.7C2640,212,2760,278,2880,285.8C3000,294,3120,245,3240,236.8C3360,229,3480,261,3600,261.3C3720,261,3840,229,3960,212.3C4080,196,4200,196,4320,163.3C4440,131,4560,65,4680,57.2C4800,49,4920,98,5040,147C5160,196,5280,245,5400,261.3C5520,278,5640,261,5760,277.7C5880,294,6000,343,6120,318.5C6240,294,6360,196,6480,187.8C6600,180,6720,261,6840,277.7C6960,294,7080,245,7200,253.2C7320,261,7440,327,7560,343C7680,359,7800,327,7920,261.3C8040,196,8160,98,8280,106.2C8400,114,8520,229,8580,285.8L8640,343L8640,490L8580,490C8520,490,8400,490,8280,490C8160,490,8040,490,7920,490C7800,490,7680,490,7560,490C7440,490,7320,490,7200,490C7080,490,6960,490,6840,490C6720,490,6600,490,6480,490C6360,490,6240,490,6120,490C6000,490,5880,490,5760,490C5640,490,5520,490,5400,490C5280,490,5160,490,5040,490C4920,490,4800,490,4680,490C4560,490,4440,490,4320,490C4200,490,4080,490,3960,490C3840,490,3720,490,3600,490C3480,490,3360,490,3240,490C3120,490,3000,490,2880,490C2760,490,2640,490,2520,490C2400,490,2280,490,2160,490C2040,490,1920,490,1800,490C1680,490,1560,490,1440,490C1320,490,1200,490,1080,490C960,490,840,490,720,490C600,490,480,490,360,490C240,490,120,490,60,490L0,490Z"/></svg>
